<mxfile host="drawio-plugin" modified="2024-02-26T17:36:47.091Z" agent="5.0 (Windows NT 10.0; Win64; x64) AppleWebKit/537.36 (KHTML, like Gecko) Chrome/111.0.0.0 Safari/537.36" etag="dFNX3RBHV3j2QIHpoJ9C" version="20.5.3" type="embed"><diagram name="第 1 页" id="dyJY8jc5gCih2Fdq-XXP"><mxGraphModel dx="748" dy="465" grid="1" gridSize="10" guides="1" tooltips="1" connect="1" arrows="1" fold="1" page="1" pageScale="1" pageWidth="827" pageHeight="1169" math="0" shadow="0"><root><mxCell id="0"/><mxCell id="1" parent="0"/><mxCell id="lUoIKgPaSjUc4zkaUTgx-8" style="edgeStyle=orthogonalEdgeStyle;rounded=0;orthogonalLoop=1;jettySize=auto;html=1;exitX=0.5;exitY=1;exitDx=0;exitDy=0;entryX=0.5;entryY=0;entryDx=0;entryDy=0;" parent="1" source="lUoIKgPaSjUc4zkaUTgx-1" target="lUoIKgPaSjUc4zkaUTgx-2" edge="1"><mxGeometry relative="1" as="geometry"/></mxCell><mxCell id="lUoIKgPaSjUc4zkaUTgx-9" style="edgeStyle=orthogonalEdgeStyle;rounded=0;orthogonalLoop=1;jettySize=auto;html=1;exitX=0.5;exitY=1;exitDx=0;exitDy=0;entryX=0.5;entryY=0;entryDx=0;entryDy=0;" parent="1" source="lUoIKgPaSjUc4zkaUTgx-1" target="lUoIKgPaSjUc4zkaUTgx-3" edge="1"><mxGeometry relative="1" as="geometry"/></mxCell><mxCell id="lUoIKgPaSjUc4zkaUTgx-10" style="edgeStyle=orthogonalEdgeStyle;rounded=0;orthogonalLoop=1;jettySize=auto;html=1;exitX=0.5;exitY=1;exitDx=0;exitDy=0;entryX=0.5;entryY=0;entryDx=0;entryDy=0;" parent="1" source="lUoIKgPaSjUc4zkaUTgx-1" target="lUoIKgPaSjUc4zkaUTgx-4" edge="1"><mxGeometry relative="1" as="geometry"/></mxCell><mxCell id="lUoIKgPaSjUc4zkaUTgx-11" style="edgeStyle=orthogonalEdgeStyle;rounded=0;orthogonalLoop=1;jettySize=auto;html=1;exitX=0.5;exitY=1;exitDx=0;exitDy=0;" parent="1" source="lUoIKgPaSjUc4zkaUTgx-1" target="lUoIKgPaSjUc4zkaUTgx-5" edge="1"><mxGeometry relative="1" as="geometry"/></mxCell><mxCell id="lUoIKgPaSjUc4zkaUTgx-12" style="edgeStyle=orthogonalEdgeStyle;rounded=0;orthogonalLoop=1;jettySize=auto;html=1;exitX=0.5;exitY=1;exitDx=0;exitDy=0;" parent="1" source="lUoIKgPaSjUc4zkaUTgx-1" target="lUoIKgPaSjUc4zkaUTgx-6" edge="1"><mxGeometry relative="1" as="geometry"/></mxCell><mxCell id="lUoIKgPaSjUc4zkaUTgx-14" style="edgeStyle=orthogonalEdgeStyle;rounded=0;orthogonalLoop=1;jettySize=auto;html=1;exitX=0.5;exitY=1;exitDx=0;exitDy=0;" parent="1" source="lUoIKgPaSjUc4zkaUTgx-1" target="lUoIKgPaSjUc4zkaUTgx-13" edge="1"><mxGeometry relative="1" as="geometry"/></mxCell><mxCell id="lUoIKgPaSjUc4zkaUTgx-61" style="edgeStyle=orthogonalEdgeStyle;rounded=0;orthogonalLoop=1;jettySize=auto;html=1;exitX=0.5;exitY=1;exitDx=0;exitDy=0;entryX=0.5;entryY=0;entryDx=0;entryDy=0;" parent="1" source="lUoIKgPaSjUc4zkaUTgx-1" target="lUoIKgPaSjUc4zkaUTgx-60" edge="1"><mxGeometry relative="1" as="geometry"/></mxCell><mxCell id="9" style="edgeStyle=orthogonalEdgeStyle;rounded=0;orthogonalLoop=1;jettySize=auto;html=1;exitX=0.5;exitY=1;exitDx=0;exitDy=0;entryX=0.5;entryY=0;entryDx=0;entryDy=0;" edge="1" parent="1" source="lUoIKgPaSjUc4zkaUTgx-1" target="2"><mxGeometry relative="1" as="geometry"/></mxCell><mxCell id="lUoIKgPaSjUc4zkaUTgx-1" value="在线&lt;b&gt;图书&lt;/b&gt;商城" style="rounded=0;whiteSpace=wrap;html=1;" parent="1" vertex="1"><mxGeometry x="560" y="160" width="120" height="60" as="geometry"/></mxCell><mxCell id="lUoIKgPaSjUc4zkaUTgx-19" style="edgeStyle=orthogonalEdgeStyle;rounded=0;orthogonalLoop=1;jettySize=auto;html=1;exitX=0;exitY=1;exitDx=0;exitDy=0;entryX=0;entryY=0.5;entryDx=0;entryDy=0;" parent="1" source="lUoIKgPaSjUc4zkaUTgx-2" target="lUoIKgPaSjUc4zkaUTgx-15" edge="1"><mxGeometry relative="1" as="geometry"/></mxCell><mxCell id="lUoIKgPaSjUc4zkaUTgx-21" style="edgeStyle=orthogonalEdgeStyle;rounded=0;orthogonalLoop=1;jettySize=auto;html=1;exitX=0;exitY=1;exitDx=0;exitDy=0;entryX=0;entryY=0.5;entryDx=0;entryDy=0;" parent="1" source="lUoIKgPaSjUc4zkaUTgx-2" target="lUoIKgPaSjUc4zkaUTgx-16" edge="1"><mxGeometry relative="1" as="geometry"/></mxCell><mxCell id="lUoIKgPaSjUc4zkaUTgx-22" style="edgeStyle=orthogonalEdgeStyle;rounded=0;orthogonalLoop=1;jettySize=auto;html=1;exitX=0;exitY=1;exitDx=0;exitDy=0;entryX=0;entryY=0.5;entryDx=0;entryDy=0;" parent="1" source="lUoIKgPaSjUc4zkaUTgx-2" target="lUoIKgPaSjUc4zkaUTgx-17" edge="1"><mxGeometry relative="1" as="geometry"/></mxCell><mxCell id="lUoIKgPaSjUc4zkaUTgx-23" style="edgeStyle=orthogonalEdgeStyle;rounded=0;orthogonalLoop=1;jettySize=auto;html=1;exitX=0;exitY=1;exitDx=0;exitDy=0;entryX=0;entryY=0.5;entryDx=0;entryDy=0;" parent="1" source="lUoIKgPaSjUc4zkaUTgx-2" target="lUoIKgPaSjUc4zkaUTgx-18" edge="1"><mxGeometry relative="1" as="geometry"/></mxCell><mxCell id="lUoIKgPaSjUc4zkaUTgx-2" value="用户管理模块ums" style="rounded=0;whiteSpace=wrap;html=1;fontStyle=1" parent="1" vertex="1"><mxGeometry x="10" y="290" width="120" height="60" as="geometry"/></mxCell><mxCell id="lUoIKgPaSjUc4zkaUTgx-29" style="edgeStyle=orthogonalEdgeStyle;rounded=0;orthogonalLoop=1;jettySize=auto;html=1;exitX=0;exitY=1;exitDx=0;exitDy=0;entryX=0;entryY=0.5;entryDx=0;entryDy=0;" parent="1" source="lUoIKgPaSjUc4zkaUTgx-3" target="lUoIKgPaSjUc4zkaUTgx-24" edge="1"><mxGeometry relative="1" as="geometry"/></mxCell><mxCell id="lUoIKgPaSjUc4zkaUTgx-30" style="edgeStyle=orthogonalEdgeStyle;rounded=0;orthogonalLoop=1;jettySize=auto;html=1;exitX=0;exitY=1;exitDx=0;exitDy=0;entryX=0;entryY=0.5;entryDx=0;entryDy=0;" parent="1" source="lUoIKgPaSjUc4zkaUTgx-3" target="lUoIKgPaSjUc4zkaUTgx-25" edge="1"><mxGeometry relative="1" as="geometry"/></mxCell><mxCell id="lUoIKgPaSjUc4zkaUTgx-31" style="edgeStyle=orthogonalEdgeStyle;rounded=0;orthogonalLoop=1;jettySize=auto;html=1;exitX=0;exitY=1;exitDx=0;exitDy=0;entryX=0;entryY=0.5;entryDx=0;entryDy=0;" parent="1" source="lUoIKgPaSjUc4zkaUTgx-3" target="lUoIKgPaSjUc4zkaUTgx-26" edge="1"><mxGeometry relative="1" as="geometry"/></mxCell><mxCell id="lUoIKgPaSjUc4zkaUTgx-3" value="图书管理模块bms" style="rounded=0;whiteSpace=wrap;html=1;fontStyle=1" parent="1" vertex="1"><mxGeometry x="170" y="290" width="120" height="60" as="geometry"/></mxCell><mxCell id="lUoIKgPaSjUc4zkaUTgx-35" style="edgeStyle=orthogonalEdgeStyle;rounded=0;orthogonalLoop=1;jettySize=auto;html=1;exitX=0;exitY=1;exitDx=0;exitDy=0;entryX=0;entryY=0.5;entryDx=0;entryDy=0;" parent="1" source="lUoIKgPaSjUc4zkaUTgx-4" target="lUoIKgPaSjUc4zkaUTgx-27" edge="1"><mxGeometry relative="1" as="geometry"/></mxCell><mxCell id="lUoIKgPaSjUc4zkaUTgx-36" style="edgeStyle=orthogonalEdgeStyle;rounded=0;orthogonalLoop=1;jettySize=auto;html=1;exitX=0;exitY=1;exitDx=0;exitDy=0;entryX=0;entryY=0.5;entryDx=0;entryDy=0;" parent="1" source="lUoIKgPaSjUc4zkaUTgx-4" target="lUoIKgPaSjUc4zkaUTgx-28" edge="1"><mxGeometry relative="1" as="geometry"/></mxCell><mxCell id="lUoIKgPaSjUc4zkaUTgx-4" value="图书分类管理category" style="rounded=0;whiteSpace=wrap;html=1;" parent="1" vertex="1"><mxGeometry x="320" y="290" width="120" height="60" as="geometry"/></mxCell><mxCell id="lUoIKgPaSjUc4zkaUTgx-56" style="edgeStyle=orthogonalEdgeStyle;rounded=0;orthogonalLoop=1;jettySize=auto;html=1;exitX=0;exitY=1;exitDx=0;exitDy=0;entryX=0;entryY=0.5;entryDx=0;entryDy=0;" parent="1" source="lUoIKgPaSjUc4zkaUTgx-5" target="lUoIKgPaSjUc4zkaUTgx-44" edge="1"><mxGeometry relative="1" as="geometry"/></mxCell><mxCell id="lUoIKgPaSjUc4zkaUTgx-57" style="edgeStyle=orthogonalEdgeStyle;rounded=0;orthogonalLoop=1;jettySize=auto;html=1;exitX=0;exitY=1;exitDx=0;exitDy=0;entryX=0;entryY=0.5;entryDx=0;entryDy=0;" parent="1" source="lUoIKgPaSjUc4zkaUTgx-5" target="lUoIKgPaSjUc4zkaUTgx-45" edge="1"><mxGeometry relative="1" as="geometry"/></mxCell><mxCell id="lUoIKgPaSjUc4zkaUTgx-59" style="edgeStyle=orthogonalEdgeStyle;rounded=0;orthogonalLoop=1;jettySize=auto;html=1;exitX=0;exitY=1;exitDx=0;exitDy=0;entryX=0;entryY=0.5;entryDx=0;entryDy=0;" parent="1" source="lUoIKgPaSjUc4zkaUTgx-5" target="lUoIKgPaSjUc4zkaUTgx-46" edge="1"><mxGeometry relative="1" as="geometry"/></mxCell><mxCell id="lUoIKgPaSjUc4zkaUTgx-5" value="购物车管理模块cart" style="rounded=0;whiteSpace=wrap;html=1;fontStyle=1" parent="1" vertex="1"><mxGeometry x="630" y="290" width="120" height="60" as="geometry"/></mxCell><mxCell id="lUoIKgPaSjUc4zkaUTgx-52" style="edgeStyle=orthogonalEdgeStyle;rounded=0;orthogonalLoop=1;jettySize=auto;html=1;exitX=0;exitY=1;exitDx=0;exitDy=0;entryX=0;entryY=0.5;entryDx=0;entryDy=0;" parent="1" source="lUoIKgPaSjUc4zkaUTgx-6" target="lUoIKgPaSjUc4zkaUTgx-48" edge="1"><mxGeometry relative="1" as="geometry"/></mxCell><mxCell id="lUoIKgPaSjUc4zkaUTgx-53" style="edgeStyle=orthogonalEdgeStyle;rounded=0;orthogonalLoop=1;jettySize=auto;html=1;exitX=0;exitY=1;exitDx=0;exitDy=0;entryX=0;entryY=0.5;entryDx=0;entryDy=0;" parent="1" source="lUoIKgPaSjUc4zkaUTgx-6" target="lUoIKgPaSjUc4zkaUTgx-49" edge="1"><mxGeometry relative="1" as="geometry"/></mxCell><mxCell id="lUoIKgPaSjUc4zkaUTgx-54" style="edgeStyle=orthogonalEdgeStyle;rounded=0;orthogonalLoop=1;jettySize=auto;html=1;exitX=0;exitY=1;exitDx=0;exitDy=0;entryX=0;entryY=0.5;entryDx=0;entryDy=0;" parent="1" source="lUoIKgPaSjUc4zkaUTgx-6" target="lUoIKgPaSjUc4zkaUTgx-50" edge="1"><mxGeometry relative="1" as="geometry"/></mxCell><mxCell id="lUoIKgPaSjUc4zkaUTgx-55" style="edgeStyle=orthogonalEdgeStyle;rounded=0;orthogonalLoop=1;jettySize=auto;html=1;exitX=0;exitY=1;exitDx=0;exitDy=0;entryX=0;entryY=0.5;entryDx=0;entryDy=0;" parent="1" source="lUoIKgPaSjUc4zkaUTgx-6" target="lUoIKgPaSjUc4zkaUTgx-51" edge="1"><mxGeometry relative="1" as="geometry"/></mxCell><mxCell id="lUoIKgPaSjUc4zkaUTgx-68" style="edgeStyle=orthogonalEdgeStyle;rounded=0;orthogonalLoop=1;jettySize=auto;html=1;exitX=0;exitY=1;exitDx=0;exitDy=0;entryX=0;entryY=0.5;entryDx=0;entryDy=0;" parent="1" source="lUoIKgPaSjUc4zkaUTgx-6" target="lUoIKgPaSjUc4zkaUTgx-67" edge="1"><mxGeometry relative="1" as="geometry"/></mxCell><mxCell id="lUoIKgPaSjUc4zkaUTgx-6" value="订单管理模块order" style="rounded=0;whiteSpace=wrap;html=1;fontStyle=1" parent="1" vertex="1"><mxGeometry x="790" y="290" width="120" height="60" as="geometry"/></mxCell><mxCell id="lUoIKgPaSjUc4zkaUTgx-41" style="edgeStyle=orthogonalEdgeStyle;rounded=0;orthogonalLoop=1;jettySize=auto;html=1;exitX=0;exitY=1;exitDx=0;exitDy=0;entryX=0;entryY=0.5;entryDx=0;entryDy=0;" parent="1" source="lUoIKgPaSjUc4zkaUTgx-13" target="lUoIKgPaSjUc4zkaUTgx-38" edge="1"><mxGeometry relative="1" as="geometry"/></mxCell><mxCell id="lUoIKgPaSjUc4zkaUTgx-42" style="edgeStyle=orthogonalEdgeStyle;rounded=0;orthogonalLoop=1;jettySize=auto;html=1;exitX=0;exitY=1;exitDx=0;exitDy=0;entryX=0;entryY=0.5;entryDx=0;entryDy=0;" parent="1" source="lUoIKgPaSjUc4zkaUTgx-13" target="lUoIKgPaSjUc4zkaUTgx-39" edge="1"><mxGeometry relative="1" as="geometry"/></mxCell><mxCell id="lUoIKgPaSjUc4zkaUTgx-43" style="edgeStyle=orthogonalEdgeStyle;rounded=0;orthogonalLoop=1;jettySize=auto;html=1;exitX=0;exitY=1;exitDx=0;exitDy=0;entryX=0;entryY=0.5;entryDx=0;entryDy=0;" parent="1" source="lUoIKgPaSjUc4zkaUTgx-13" target="lUoIKgPaSjUc4zkaUTgx-40" edge="1"><mxGeometry relative="1" as="geometry"/></mxCell><mxCell id="lUoIKgPaSjUc4zkaUTgx-13" value="书评管理comment" style="rounded=0;whiteSpace=wrap;html=1;" parent="1" vertex="1"><mxGeometry x="480" y="290" width="120" height="60" as="geometry"/></mxCell><mxCell id="lUoIKgPaSjUc4zkaUTgx-15" value="普通用户注册" style="rounded=1;whiteSpace=wrap;html=1;" parent="1" vertex="1"><mxGeometry x="50" y="380" width="80" height="60" as="geometry"/></mxCell><mxCell id="lUoIKgPaSjUc4zkaUTgx-16" value="图书商户注册" style="rounded=1;whiteSpace=wrap;html=1;" parent="1" vertex="1"><mxGeometry x="50" y="460" width="80" height="60" as="geometry"/></mxCell><mxCell id="lUoIKgPaSjUc4zkaUTgx-17" value="个人信息管理" style="rounded=1;whiteSpace=wrap;html=1;" parent="1" vertex="1"><mxGeometry x="50" y="540" width="80" height="60" as="geometry"/></mxCell><mxCell id="lUoIKgPaSjUc4zkaUTgx-18" value="商户信息管理" style="rounded=1;whiteSpace=wrap;html=1;" parent="1" vertex="1"><mxGeometry x="50" y="610" width="80" height="60" as="geometry"/></mxCell><mxCell id="lUoIKgPaSjUc4zkaUTgx-24" value="商户上架图书" style="rounded=1;whiteSpace=wrap;html=1;" parent="1" vertex="1"><mxGeometry x="210" y="380" width="80" height="60" as="geometry"/></mxCell><mxCell id="lUoIKgPaSjUc4zkaUTgx-25" value="修改图书信息" style="rounded=1;whiteSpace=wrap;html=1;" parent="1" vertex="1"><mxGeometry x="210" y="460" width="80" height="60" as="geometry"/></mxCell><mxCell id="lUoIKgPaSjUc4zkaUTgx-26" value="图书下架" style="rounded=1;whiteSpace=wrap;html=1;" parent="1" vertex="1"><mxGeometry x="210" y="540" width="80" height="60" as="geometry"/></mxCell><mxCell id="lUoIKgPaSjUc4zkaUTgx-27" value="新增图书分类" style="rounded=1;whiteSpace=wrap;html=1;" parent="1" vertex="1"><mxGeometry x="360" y="380" width="80" height="60" as="geometry"/></mxCell><mxCell id="lUoIKgPaSjUc4zkaUTgx-28" value="修改已有图书所属分类" style="rounded=1;whiteSpace=wrap;html=1;" parent="1" vertex="1"><mxGeometry x="360" y="460" width="80" height="60" as="geometry"/></mxCell><mxCell id="lUoIKgPaSjUc4zkaUTgx-38" value="为图书新增短评" style="rounded=1;whiteSpace=wrap;html=1;" parent="1" vertex="1"><mxGeometry x="520" y="380" width="80" height="60" as="geometry"/></mxCell><mxCell id="lUoIKgPaSjUc4zkaUTgx-39" value="打分功能" style="rounded=1;whiteSpace=wrap;html=1;" parent="1" vertex="1"><mxGeometry x="520" y="460" width="80" height="60" as="geometry"/></mxCell><mxCell id="lUoIKgPaSjUc4zkaUTgx-40" value="图书计分功能" style="rounded=1;whiteSpace=wrap;html=1;" parent="1" vertex="1"><mxGeometry x="520" y="540" width="80" height="60" as="geometry"/></mxCell><mxCell id="lUoIKgPaSjUc4zkaUTgx-44" value="加入购物车" style="rounded=1;whiteSpace=wrap;html=1;" parent="1" vertex="1"><mxGeometry x="670" y="380" width="80" height="60" as="geometry"/></mxCell><mxCell id="lUoIKgPaSjUc4zkaUTgx-45" value="修改已加购图书数量" style="rounded=1;whiteSpace=wrap;html=1;" parent="1" vertex="1"><mxGeometry x="670" y="460" width="80" height="60" as="geometry"/></mxCell><mxCell id="lUoIKgPaSjUc4zkaUTgx-46" value="从购物车删除" style="rounded=1;whiteSpace=wrap;html=1;" parent="1" vertex="1"><mxGeometry x="670" y="540" width="80" height="60" as="geometry"/></mxCell><mxCell id="lUoIKgPaSjUc4zkaUTgx-48" value="从购物车生成订单" style="rounded=1;whiteSpace=wrap;html=1;" parent="1" vertex="1"><mxGeometry x="830" y="380" width="80" height="60" as="geometry"/></mxCell><mxCell id="lUoIKgPaSjUc4zkaUTgx-49" value="立即购买" style="rounded=1;whiteSpace=wrap;html=1;" parent="1" vertex="1"><mxGeometry x="827" y="460" width="80" height="60" as="geometry"/></mxCell><mxCell id="lUoIKgPaSjUc4zkaUTgx-50" value="支付" style="rounded=1;whiteSpace=wrap;html=1;" parent="1" vertex="1"><mxGeometry x="827" y="540" width="80" height="60" as="geometry"/></mxCell><mxCell id="lUoIKgPaSjUc4zkaUTgx-51" value="订单状态修改" style="rounded=1;whiteSpace=wrap;html=1;" parent="1" vertex="1"><mxGeometry x="827" y="620" width="80" height="60" as="geometry"/></mxCell><mxCell id="lUoIKgPaSjUc4zkaUTgx-64" style="edgeStyle=orthogonalEdgeStyle;rounded=0;orthogonalLoop=1;jettySize=auto;html=1;exitX=0;exitY=1;exitDx=0;exitDy=0;entryX=0;entryY=0.5;entryDx=0;entryDy=0;" parent="1" source="lUoIKgPaSjUc4zkaUTgx-60" target="lUoIKgPaSjUc4zkaUTgx-63" edge="1"><mxGeometry relative="1" as="geometry"/></mxCell><mxCell id="lUoIKgPaSjUc4zkaUTgx-66" style="edgeStyle=orthogonalEdgeStyle;rounded=0;orthogonalLoop=1;jettySize=auto;html=1;exitX=0;exitY=1;exitDx=0;exitDy=0;entryX=0;entryY=0.5;entryDx=0;entryDy=0;" parent="1" source="lUoIKgPaSjUc4zkaUTgx-60" target="lUoIKgPaSjUc4zkaUTgx-62" edge="1"><mxGeometry relative="1" as="geometry"/></mxCell><mxCell id="lUoIKgPaSjUc4zkaUTgx-60" value="收货地址管理address" style="rounded=0;whiteSpace=wrap;html=1;" parent="1" vertex="1"><mxGeometry x="950" y="290" width="120" height="60" as="geometry"/></mxCell><mxCell id="lUoIKgPaSjUc4zkaUTgx-62" value="已有地址修改" style="rounded=1;whiteSpace=wrap;html=1;" parent="1" vertex="1"><mxGeometry x="990" y="460" width="80" height="60" as="geometry"/></mxCell><mxCell id="lUoIKgPaSjUc4zkaUTgx-63" value="新增收货地址" style="rounded=1;whiteSpace=wrap;html=1;" parent="1" vertex="1"><mxGeometry x="990" y="380" width="80" height="60" as="geometry"/></mxCell><mxCell id="lUoIKgPaSjUc4zkaUTgx-67" value="订单详情功能" style="rounded=1;whiteSpace=wrap;html=1;" parent="1" vertex="1"><mxGeometry x="827" y="700" width="80" height="60" as="geometry"/></mxCell><mxCell id="6" style="edgeStyle=orthogonalEdgeStyle;rounded=0;orthogonalLoop=1;jettySize=auto;html=1;exitX=0;exitY=1;exitDx=0;exitDy=0;entryX=0;entryY=0.5;entryDx=0;entryDy=0;" edge="1" parent="1" source="2" target="3"><mxGeometry relative="1" as="geometry"/></mxCell><mxCell id="7" style="edgeStyle=orthogonalEdgeStyle;rounded=0;orthogonalLoop=1;jettySize=auto;html=1;exitX=0;exitY=1;exitDx=0;exitDy=0;entryX=0;entryY=0.5;entryDx=0;entryDy=0;" edge="1" parent="1" source="2" target="4"><mxGeometry relative="1" as="geometry"/></mxCell><mxCell id="8" style="edgeStyle=orthogonalEdgeStyle;rounded=0;orthogonalLoop=1;jettySize=auto;html=1;exitX=0;exitY=1;exitDx=0;exitDy=0;entryX=0;entryY=0.5;entryDx=0;entryDy=0;" edge="1" parent="1" source="2" target="5"><mxGeometry relative="1" as="geometry"/></mxCell><mxCell id="2" value="图书搜索search" style="rounded=0;whiteSpace=wrap;html=1;fontStyle=0" vertex="1" parent="1"><mxGeometry x="1100" y="290" width="120" height="60" as="geometry"/></mxCell><mxCell id="3" value="按商家搜索" style="rounded=1;whiteSpace=wrap;html=1;" vertex="1" parent="1"><mxGeometry x="1140" y="380" width="80" height="60" as="geometry"/></mxCell><mxCell id="4" value="按图书基本信息（书名/出版社等）搜索" style="rounded=1;whiteSpace=wrap;html=1;" vertex="1" parent="1"><mxGeometry x="1140" y="460" width="80" height="60" as="geometry"/></mxCell><mxCell id="5" value="按分类搜索" style="rounded=1;whiteSpace=wrap;html=1;" vertex="1" parent="1"><mxGeometry x="1140" y="540" width="80" height="60" as="geometry"/></mxCell></root></mxGraphModel></diagram></mxfile>